<svg width="251.408" height="207.415" viewBox="0 0 66.518 54.878" xmlns:xlink="http://www.w3.org/1999/xlink" xmlns="http://www.w3.org/2000/svg"><defs><linearGradient id="b"><stop style="stop-color:#ffa660;stop-opacity:1" offset="0"/><stop style="stop-color:#ffa660;stop-opacity:.06425703" offset="1"/></linearGradient><linearGradient id="a"><stop style="stop-color:#ff3160;stop-opacity:.86956519" offset="0"/><stop style="stop-color:#ffa660;stop-opacity:1" offset="1"/></linearGradient><linearGradient xlink:href="#b" id="d" x1="95.179" y1="134.298" x2="120.703" y2="150.106" gradientUnits="userSpaceOnUse"/><radialGradient xlink:href="#a" id="c" cx="108.746" cy="141.943" fx="108.746" fy="141.943" r="33.391" gradientTransform="matrix(1 0 0 .8257 0 24.741)" gradientUnits="userSpaceOnUse"/></defs><g transform="translate(-75.486 -114.504)"><path style="fill:url(#c);fill-opacity:1;stroke:none;stroke-width:.264583px;stroke-linecap:butt;stroke-linejoin:miter;stroke-opacity:1" d="M95.179 134.298c.069 7.674-22.53 5.401-19.394 12.405 2.472 5.52 13.438-9.399 17.472-4.892 4.565 5.1-13.24 15.039-7.688 19.044 3.72 2.683 6.115-10.306 10.483-8.91 4.521 1.444-1.19 13.043 3.495 13.802 3.412.553 2.136-8.6 5.59-8.736 5.11-.201 4.435 13.922 9.26 12.23 4.18-1.464-4.325-11.33-.349-13.278 5.203-2.55 8.98 14.69 13.454 11.007 4.184-3.445-10.862-9.934-7.688-14.327 3.566-4.936 15.67 8.773 17.996 3.145 2.172-5.256-15.114-4.211-13.978-9.784 1.237-6.066 18.373 2.344 18.171-3.844-.2-6.116-16.098 3.137-18.17-2.62-1.997-5.548 15.071-8.146 11.88-13.104-3.21-4.988-12.423 9.25-16.947 5.416-4.31-3.654 7.767-14.875 2.446-16.773-4.798-1.711-2.77 13.222-7.863 13.104-5.158-.12-2.28-14.646-7.338-13.628-4.13.83 2.76 11.204-1.223 12.58-5.022 1.735-6.559-14.44-11.007-11.532-4.174 2.728 9.088 10.085 5.766 13.803-5.415 6.061-20.12-14.245-23.412-6.814-3.02 6.812 18.977 4.255 19.044 11.706z"/><circle style="fill:url(#d);fill-opacity:1;fill-rule:evenodd;stroke-width:.264583" cx="108.472" cy="142.076" r="13.096"/></g></svg>